PathFileType	4	(X/Y/Z)	S01_0008_Gait_markers.trc
DataRate	CameraRate	NumFrames	NumMarkers	Units	OrigDataRate	OrigDataStartFrame	OrigNumFrames
250.000000	250.000000	4	54	mm	250.000000	170	340
Frame#	Time	HEAD_ANT			R_HEAD			L_HEAD			C7			R_BACK			L_BACK			STERNUM			R_ACROMION			R_HUM_PROX			R_HUM_ANT			R_HUM_POST			R_ELBOW_LAT			R_ELBOW_MED			R_FOREARM			R_WIRST_LAT			R_WRITS_MED			R_HAND			L_ACROMION			L_HUM_PROX			L_HUM_ANT			L_HUM_POST			L_ELBOW_LAT			L_ELBOW_MED			L_FOREARM			L_WRIST_LAT			L_WIRST_MED			L_HAND			R_ILIAC			SACRUM			L_ILIAC			R_GTROCH			R_THIGH__1			R_THIGH_2			R_THIGH_3			R_THIGH_4			R_SHANK_1			R_SHANK_2			R_SHANK_3			R_SHANK_4			R_HEEL			R_FOOT_LAT			R_FOOT_MED			L_GTROCH			L_THIGH_1			L_THIGH_2			L_THIGH_3			L_THIGH_4			L_SHANK_1			L_SHANK_2			L_SHANK_3			L_SHANK_4			L_HEEL			L_FOOT_LAT			L_FOOT_MED			
		X1	Y1	Z1	X2	Y2	Z2	X3	Y3	Z3	X4	Y4	Z4	X5	Y5	Z5	X6	Y6	Z6	X7	Y7	Z7	X8	Y8	Z8	X9	Y9	Z9	X10	Y10	Z10	X11	Y11	Z11	X12	Y12	Z12	X13	Y13	Z13	X14	Y14	Z14	X15	Y15	Z15	X16	Y16	Z16	X17	Y17	Z17	X18	Y18	Z18	X19	Y19	Z19	X20	Y20	Z20	X21	Y21	Z21	X22	Y22	Z22	X23	Y23	Z23	X24	Y24	Z24	X25	Y25	Z25	X26	Y26	Z26	X27	Y27	Z27	X28	Y28	Z28	X29	Y29	Z29	X30	Y30	Z30	X31	Y31	Z31	X32	Y32	Z32	X33	Y33	Z33	X34	Y34	Z34	X35	Y35	Z35	X36	Y36	Z36	X37	Y37	Z37	X38	Y38	Z38	X39	Y39	Z39	X40	Y40	Z40	X41	Y41	Z41	X42	Y42	Z42	X43	Y43	Z43	X44	Y44	Z44	X45	Y45	Z45	X46	Y46	Z46	X47	Y47	Z47	X48	Y48	Z48	X49	Y49	Z49	X50	Y50	Z50	X51	Y51	Z51	X52	Y52	Z52	X53	Y53	Z53	X54	Y54	Z54	

171	0.68	1120.777221679688	1711.8994140625	-352.0457763671871	1062.182739257812	1657.52978515625	-276.6360168457028	1064.176391601562	1662.587036132812	-424.326995849609	928.1790771484375	1488.167358398438	-354.2726440429684	855.6659545898438	1293.934448242188	-287.0092773437497	853.17578125	1295.56689453125	-421.3998107910153	1105.7265625	1324.5029296875	-356.012023925781	1011.072631835938	1436.81689453125	-183.6477050781247	995.5828857421875	1275.15185546875	-94.48432922363253	1066.790649414062	1197.42041015625	-100.9601745605466	947.752685546875	1184.724609375	-77.19513702392551	1010.034118652344	1083.71240234375	-78.44245910644507	976.5574951171875	1076.449951171875	-155.2462463378904	1152.788940429688	931.9832153320312	-102.1670684814451	1203.211303710938	882.8264770507812	-148.9053039550779	1148.599853515625	838.3504028320312	-108.1170806884764	1236.693725585938	799.626953125	-99.21961975097639	1002.143493652344	1443.041381835938	-524.1569213867184	956.9600830078125	1277.063232421875	-614.5568237304685	1011.128051757812	1190.9814453125	-621.078674316406	886.5442504882812	1204.752319335938	-630.0855712890623	937.4617919921875	1094.455932617188	-642.0328979492185	890.11962890625	1094.842651367188	-580.6289062499998	1020.130676269531	908.5647583007814	-642.2643432617185	1054.251342773438	845.6424560546876	-595.9658203124998	996.2134399414062	828.1334838867189	-648.190490722656	1066.176147460938	762.9397583007814	-645.0563354492186	987.1735229492188	1038.418579101562	-183.483947753906	875.5318603515625	1012.13525390625	-368.6730957031248	1010.435180664062	1034.966186523438	-530.3939208984373	922.5149536132812	909.05224609375	-178.9683227539061	876.7703247070312	642.732421875	-201.1756134033202	934.617919921875	640.9192504882812	-191.278366088867	910.9420776367188	541.3668212890625	-224.7606201171874	851.3157348632812	567.512451171875	-222.1729278564452	724.9402465820312	377.2259216308594	-225.3437042236327	760.5889282226562	330.2597961425782	-237.8020477294921	712.3123168945312	261.7117614746094	-259.0336303710937	662.001708984375	300.2522583007813	-252.7275695800781	520.3660278320312	152.0149841308595	-339.3703918457031	630.264892578125	24.89409065246588	-264.3814086914062	695.77099609375	29.69494819641121	-356.6370239257812	993.4159545898438	921.4392700195314	-540.4249267578123	1170.646362304688	674.6477050781251	-507.153350830078	1116.435302734375	672.1116943359376	-531.2570800781249	1134.397094726562	572.7998046875001	-494.136993408203	1191.336059570312	598.7617797851564	-476.8110351562499	1240.333374023438	334.1531372070314	-473.4169616699218	1190.942138671875	298.5867919921876	-477.4109497070312	1210.091918945312	214.7282714843751	-460.3604431152343	1269.082885742188	237.8097381591798	-450.4130249023437	1209.884765625	34.95473098754891	-390.4661865234375	1390.20849609375	32.88943481445322	-448.2788391113281	1420.016235351562	55.56656265258797	-351.0905456542969	
172	0.6840000000000001	1126.40380859375	1712.35693359375	-353.0083618164059	1067.87890625	1658.135498046875	-277.843353271484	1070.12451171875	1663.129272460938	-425.1881713867184	934.4729614257812	1488.527954101562	-355.1636047363278	861.8317260742188	1294.062622070312	-288.0278625488278	859.1854858398438	1295.904052734375	-422.2190246582028	1111.9892578125	1324.96826171875	-356.6292724609372	1016.969421386719	1437.136962890625	-184.1401977539059	1000.925170898438	1275.338500976562	-95.34250640869112	1072.150512695312	1197.476440429688	-101.4372253417966	952.9419555664062	1185.130981445312	-78.03715515136692	1015.179626464844	1083.973022460938	-79.21400451660132	982.3154296875	1076.595703125	-156.0445709228513	1157.30615234375	931.4337158203125	-101.9981155395506	1207.690673828125	882.0307006835938	-148.5451812744139	1152.67529296875	838.0191040039062	-107.74796295166	1241.613525390625	798.8304443359375	-100.3283081054686	1008.420166015625	1442.977172851563	-524.9508056640622	963.4932861328125	1276.87841796875	-614.9891967773435	1017.738952636719	1190.92333984375	-621.3411865234373	893.1038208007812	1204.411499023438	-630.478576660156	944.2359619140625	1094.223876953125	-642.337219238281	896.8010864257812	1094.485961914063	-581.023498535156	1026.727905273438	908.1619262695314	-642.3371582031248	1060.905395507812	845.2403564453126	-596.0844116210935	1002.811340332031	827.8515625000001	-648.2433471679685	1072.719604492188	762.5611572265626	-644.9694824218749	994.2576904296875	1038.205322265625	-183.7396392822263	882.0264892578125	1012.531677246094	-368.2062072753904	1016.844482421875	1035.155395507813	-530.602355957031	929.16650390625	908.304443359375	-179.185592651367	884.5949096679688	642.177734375	-201.4850463867186	942.5013427734375	640.2697143554688	-191.1123046874999	919.042236328125	540.5198364257812	-224.760040283203	859.1884155273438	566.4508056640625	-222.4603118896483	731.708251953125	377.9577331542969	-224.482940673828	766.7217407226562	330.7394714355469	-237.0835571289062	717.5280151367188	262.7672119140626	-258.0694274902343	667.7870483398438	301.9824829101563	-251.518814086914	524.2830810546875	155.9214172363282	-338.2174377441406	631.1189575195312	25.57516479492194	-264.3184814453125	695.9544677734375	29.65431213378914	-356.6565856933594	999.96875	922.4671020507814	-540.8043212890623	1177.623291015625	676.0319824218751	-505.3897094726561	1123.340576171875	673.6306152343751	-529.8931884765624	1141.954711914062	573.8363037109376	-493.949981689453	1198.722778320312	600.2761840820314	-476.5739746093749	1246.2998046875	334.6801757812501	-473.3413696289062	1196.65380859375	299.8425598144532	-478.2254943847656	1214.214477539062	215.7563934326173	-461.2549133300781	1273.320434570312	237.6488494873048	-450.2531433105468	1210.394775390625	35.45582580566415	-390.72314453125	1390.802734375	30.56621551513682	-447.9956665039062	1420.685302734375	53.06888961792	-350.3877868652344	
173	0.6880000000000001	1132.088256835938	1712.9052734375	-354.0180969238277	1073.759399414062	1658.863037109375	-278.743988037109	1076.013916015625	1663.58203125	-426.124114990234	940.64697265625	1488.870483398438	-355.9920043945309	867.9761352539062	1294.261352539062	-289.2905273437497	865.4105834960938	1296.229248046875	-422.6882324218747	1118.133544921875	1325.401977539062	-357.3918762207028	1022.856994628906	1437.646606445312	-184.8249664306637	1006.498046875	1275.638793945312	-95.99818420410128	1077.400024414062	1197.67041015625	-101.857971191406	958.11083984375	1185.485229492188	-79.17144775390598	1020.311645507812	1084.30029296875	-80.12995147705054	987.4721069335938	1076.84375	-156.9535675048826	1161.668334960938	930.8861694335938	-102.1035842895506	1212.051025390625	881.1986083984375	-148.1162261962889	1156.608032226562	837.5382690429688	-107.5500335693358	1245.169189453125	797.9993896484375	-99.27382659912092	1014.607727050781	1443.145141601563	-525.7000122070309	969.997802734375	1276.694213867188	-615.3864746093748	1024.46630859375	1190.989990234375	-621.6656494140623	899.7847900390625	1204.1728515625	-631.0162963867185	951.1334838867188	1093.804809570313	-642.3575439453123	903.6054077148438	1094.18896484375	-581.2929077148435	1033.403930664062	907.8679199218751	-642.382873535156	1067.481079101562	845.0039672851564	-596.0541381835935	1009.423095703125	827.5679931640626	-648.361633300781	1079.248657226562	762.3016357421876	-645.0791625976561	1001.304077148438	1038.02294921875	-183.7493438720701	888.3695678710938	1012.981506347656	-367.9503173828123	1022.885131835938	1035.456176757813	-530.852600097656	935.844970703125	907.7311401367188	-179.3244018554686	892.4461059570312	641.1845703125	-201.766387939453	950.5631103515625	639.9025268554688	-191.2697601318358	927.2207641601562	539.8810424804688	-224.5980987548827	867.3631591796875	565.177978515625	-223.2091217041014	738.5985717773438	378.9607238769532	-223.8304748535155	773.0499877929688	331.2001953125001	-236.4473266601562	722.8619995117188	263.7877197265626	-256.9307556152343	673.6612548828125	303.6921691894532	-250.4284667968749	528.531005859375	159.9741821289063	-336.7546691894531	632.2295532226562	26.4186744689942	-264.0681762695312	696.1632080078125	29.57148170471199	-356.725830078125	1006.643432617188	923.9976806640626	-541.119445800781	1185.087768554688	677.5568237304689	-506.2886962890623	1130.868408203125	674.9814453125001	-530.1799926757811	1149.329345703125	575.4263916015626	-493.9372558593749	1206.248413085938	601.3991699218751	-476.3501586914061	1251.982666015625	334.9541015625001	-473.3713073730468	1201.738159179688	300.934539794922	-478.8221130371093	1217.747680664062	216.276092529297	-461.7903442382812	1277.0556640625	237.3623809814454	-449.7895507812499	1210.784301757812	35.88028335571298	-390.9699096679688	1391.287231445312	28.37558746337901	-447.4845886230469	1421.078979492188	50.49559783935555	-349.7973327636719	
174	0.6920000000000001	1137.920043945312	1713.65380859375	-354.8889770507809	1079.703002929688	1659.548950195312	-279.5834960937497	1081.8720703125	1664.087646484375	-427.0167541503902	946.85400390625	1489.555908203125	-356.8071899414059	874.1433715820312	1294.549682617188	-289.9222412109372	871.5635375976562	1296.848022460938	-423.475646972656	1124.2568359375	1325.91162109375	-357.9653625488278	1028.659423828125	1438.247192382812	-185.2684478759762	1011.979187011719	1276.15283203125	-96.79636383056612	1082.686401367188	1197.996215820312	-102.2228012084958	963.2420043945312	1186.070068359375	-80.17458343505832	1024.067749023438	1084.97216796875	-80.67157745361304	993.135009765625	1077.299682617188	-157.759826660156	1166.159545898438	930.4269409179688	-102.0271530151365	1216.201904296875	880.3340454101562	-147.8822326660154	1160.407836914062	837.023681640625	-107.5081787109373	1248.59716796875	796.9391479492188	-98.26589965820295	1020.790405273438	1443.373413085938	-526.5515136718747	976.600830078125	1276.79052734375	-615.8353271484373	1031.349731445312	1191.090942382813	-623.0096435546873	906.497314453125	1204.114868164063	-631.4647216796873	957.9514770507812	1093.719360351563	-642.5275268554685	910.433837890625	1094.087158203125	-581.5294189453123	1040.093505859375	907.7208251953126	-642.4127197265623	1074.0498046875	844.8475952148439	-596.1186523437498	1016.035705566406	827.3573608398439	-648.4359741210935	1085.90380859375	762.3047485351564	-645.2907104492186	1008.439636230469	1038.074829101562	-184.187072753906	894.8502807617188	1013.323486328125	-367.8655090332029	1029.052734375	1036.060791015625	-531.3156127929685	942.4921264648438	907.0072631835938	-179.6211242675779	900.5353393554688	640.4342041015625	-201.7034454345702	958.4791870117188	639.3299560546875	-191.4703674316405	935.770751953125	539.1826782226562	-224.337677001953	875.789794921875	564.0878295898438	-223.2174377441405	745.7802734375	379.9442443847657	-223.1100616455077	779.5084228515625	331.5682678222657	-235.619644165039	728.5946655273438	264.7715454101563	-255.8012237548828	679.7181396484375	305.2542114257813	-249.6060791015624	533.2206420898438	164.1676177978516	-335.3761291503906	633.297119140625	27.20029830932623	-264.0124816894531	696.3971557617188	29.53505706787117	-356.7901000976562	1013.239868164062	925.3748779296876	-541.258605957031	1192.363403320312	679.1660766601564	-506.1829528808592	1138.130126953125	676.6455078125001	-530.2565307617186	1157.10009765625	576.8662109375001	-494.3388671874999	1213.7685546875	602.9440917968751	-476.2072448730468	1257.432250976562	335.0999755859376	-473.5001831054687	1206.770751953125	301.5584716796876	-479.7340393066406	1221.190185546875	216.8543090820314	-462.7835388183593	1280.685913085938	237.0925445556642	-449.8894958496093	1211.232299804688	36.2947425842286	-391.2660827636719	1391.877685546875	26.51424217224131	-446.8561706542969	1421.364379882812	48.29328918457039	-349.1488647460938	
